<svg xmlns="http://www.w3.org/2000/svg" width="101" height="32"><g fill="none" fill-rule="evenodd"><path fill="#FFF" d="M18.03 24.22h5.239V.037H18.03zm8.256-6.115V8.259h5.412v8.706c0 2.314 1.076 3.212 2.637 3.212 1.838 0 3.018-1.278 3.018-4.214V8.259h5.24v15.96h-5.136v-2.487h-.07c-1.144 1.831-2.67 3.006-5.03 3.006-3.4 0-6.071-2.073-6.071-6.633m39.86-1.865c0-2.28-1.596-3.732-3.713-3.732-2.081 0-3.677 1.451-3.677 3.731s1.596 3.731 3.677 3.731c2.117 0 3.713-1.45 3.713-3.73zm-12.768 0c0-5.597 3.435-8.5 7.598-8.5 2.602 0 4.233 1.072 5.24 2.695h.068V.037h5.24V24.22h-5.24v-2.177h-.069c-1.006 1.624-2.637 2.695-5.239 2.695-4.163 0-7.598-2.902-7.598-8.499zm21.404 7.98h5.239V.037h-5.239zm26.089-15.961l-10.652 22.87h-5.273l4.025-8.429-7.182-14.441h6.036l3.748 8.809 3.99-8.809h5.308M45.816 24.22h5.239V8.182h-5.239zM48.436.028h-.001a2.614 2.614 0 00-2.619 2.608 2.614 2.614 0 002.619 2.608h.001a2.613 2.613 0 002.619-2.608A2.613 2.613 0 0048.436.028M0 17.088v7.155h5.377v-10.1c-.566-.193-1.15-.323-1.741-.323C.966 13.82.211 16 0 17.088M15.07 5.069V.059H.65A.654.654 0 000 .708V10.83c.119-.231.26-.44.412-.591 1.225-1.224 2.526-1.407 3.193-1.407.55 0 1.156.127 1.772.316V5.069h9.692"/><path fill="#49B279" d="M11.344 11.714c-.901 0-1.769-.406-3.205-1.078l-.625-.292c-.683-.314-1.42-.63-2.137-.858-.62-.197-1.228-.33-1.772-.33-.616 0-1.82.17-2.963 1.311-.303.304-.565.884-.642 1.378v4.125c.462-1.12 1.469-2.473 3.636-2.473.595 0 1.178.12 1.741.305.801.26 1.562.652 2.253 1.031 1.194.655 2.225 1.22 3.499 1.22.833 0 2.412-.274 3.66-2.105V9.89c-.879.892-2.116 1.824-3.445 1.824"/><path d="M0 0h101v32H0z"/></g></svg>